# 3ds Max Wavefront OBJ Exporter v0.97b - (c)2007 guruware
# File Created: 09.02.2018 22:02:42

mtllib 872827_Componente6.mtl

#
# object Componente6
#

v  0.6727 0.0000 1.4727
v  -0.6727 0.0000 1.4727
v  -1.3453 0.0000 0.0000
v  -0.6727 0.0000 -1.4727
v  0.6727 0.0000 -1.4727
v  1.3453 0.0000 0.0000
v  0.6908 0.1371 -1.5146
v  1.3816 0.1371 0.0000
v  -0.6908 0.1371 -1.5146
v  -1.3816 0.1371 0.0000
v  -0.6908 0.1371 1.5146
v  0.6908 0.1371 1.5146
v  2.5938 3.0000 0.0000
v  1.2969 3.0000 -2.3700
v  1.2969 5.8246 -2.3700
v  2.5938 5.8246 0.0000
v  -1.2969 3.0000 -2.3700
v  -1.2969 5.8246 -2.3700
v  -2.5938 3.0000 0.0000
v  -2.5938 5.8246 0.0000
v  -1.2969 3.0000 2.3700
v  -1.2969 5.8246 2.3700
v  1.2969 3.0000 2.3700
v  1.2969 5.8246 2.3700
v  6.0000 6.0000 -0.0000
v  3.0000 6.0000 -5.1962
v  3.0000 6.2863 -5.1962
v  6.0000 6.2863 -0.0000
v  -3.0000 6.0000 -5.1962
v  -3.0000 6.2863 -5.1962
v  -6.0000 6.0000 0.0000
v  -6.0000 6.2863 0.0000
v  -3.0000 6.0000 5.1962
v  -3.0000 6.2863 5.1962
v  3.0000 6.0000 5.1962
v  3.0000 6.2863 5.1962
v  5.7765 9.0000 0.0000
v  2.8882 9.0000 -5.0026
v  3.0000 9.1423 -5.1962
v  6.0000 9.1423 -0.0000
v  -2.8882 9.0000 -5.0026
v  -3.0000 9.1423 -5.1962
v  -5.7765 9.0000 0.0000
v  -6.0000 9.1423 0.0000
v  -2.8882 9.0000 5.0026
v  -3.0000 9.1423 5.1962
v  2.8882 9.0000 5.0026
v  3.0000 9.1423 5.1962
v  1.3515 12.0000 2.3409
v  2.7030 12.0000 -0.0000
v  1.3515 12.0000 -2.3409
v  -1.3515 12.0000 -2.3409
v  -2.7030 12.0000 0.0000
v  -1.3515 12.0000 2.3409
v  1.2914 2.9382 -2.3700
v  2.5828 2.9382 0.0000
v  -1.2914 2.9382 -2.3700
v  -2.5828 2.9382 0.0000
v  -1.2914 2.9382 2.3700
v  1.2914 2.9382 2.3700
v  6.0000 12.0000 -0.0000
v  3.0000 12.0000 -5.1962
v  1.4929 12.0000 -2.5857
v  2.9857 12.0000 -0.0000
v  -3.0000 12.0000 -5.1962
v  -1.4929 12.0000 -2.5857
v  -6.0000 12.0000 0.0000
v  -2.9857 12.0000 0.0000
v  -3.0000 12.0000 5.1962
v  -1.4929 12.0000 2.5857
v  3.0000 12.0000 5.1962
v  1.4929 12.0000 2.5857
v  0.7089 0.2738 -1.5563
v  1.4178 0.2738 0.0000
v  -0.7089 0.2738 -1.5563
v  -1.4178 0.2738 0.0000
v  -0.7089 0.2738 1.5563
v  0.7089 0.2738 1.5563
v  1.2760 2.8428 -2.3408
v  2.5521 2.8428 0.0000
v  -1.2760 2.8428 -2.3408
v  -2.5521 2.8428 0.0000
v  -1.2760 2.8428 2.3408
v  1.2760 2.8428 2.3408
v  3.0000 8.8477 -5.1962
v  6.0000 8.8477 -0.0000
v  -3.0000 8.8477 -5.1962
v  -6.0000 8.8477 0.0000
v  -3.0000 8.8477 5.1962
v  3.0000 8.8477 5.1962
v  3.0000 9.3606 -5.1962
v  6.0000 9.3606 -0.0000
v  -3.0000 9.3606 -5.1962
v  -6.0000 9.3606 0.0000
v  -3.0000 9.3606 5.1962
v  3.0000 9.3606 5.1962
v  3.0000 11.7678 -5.1962
v  6.0000 11.7678 -0.0000
v  -3.0000 11.7678 -5.1962
v  -6.0000 11.7678 0.0000
v  -3.0000 11.7678 5.1962
v  3.0000 11.7678 5.1962
v  3.0000 8.7276 -5.1962
v  6.0000 8.7276 -0.0000
v  -3.0000 8.7276 -5.1962
v  -6.0000 8.7276 0.0000
v  -3.0000 8.7276 5.1962
v  3.0000 8.7276 5.1962
# 108 vertices

vn 0.3877 -0.7194 0.5764
vn -0.3877 -0.7194 0.5764
vn -0.6949 -0.7191 0.0000
vn -0.3877 -0.7194 -0.5764
vn 0.3877 -0.7194 -0.5764
vn 0.6949 -0.7191 0.0000
vn 0.5177 -0.3118 -0.7967
vn 0.9667 -0.2558 0.0000
vn -0.5177 -0.3118 -0.7967
vn -0.9667 -0.2558 0.0000
vn -0.5177 -0.3118 0.7967
vn 0.5177 -0.3118 0.7967
vn 0.9963 -0.0859 0.0000
vn 0.5201 -0.0235 -0.8538
vn 0.2912 -0.8206 -0.4917
vn 0.5833 -0.8123 0.0000
vn -0.5201 -0.0235 -0.8538
vn -0.2912 -0.8206 -0.4917
vn -0.9963 -0.0859 0.0000
vn -0.5833 -0.8123 0.0000
vn -0.5201 -0.0235 0.8538
vn -0.2912 -0.8206 0.4917
vn 0.5201 -0.0235 0.8538
vn 0.2912 -0.8206 0.4917
vn 0.8040 -0.5947 0.0000
vn 0.4023 -0.5942 -0.6965
vn 0.5000 0.0000 -0.8660
vn 1.0000 0.0000 0.0000
vn -0.4023 -0.5942 -0.6965
vn -0.5000 0.0000 -0.8660
vn -0.8040 -0.5947 0.0000
vn -1.0000 0.0000 0.0000
vn -0.4023 -0.5942 0.6965
vn -0.5000 0.0000 0.8660
vn 0.4023 -0.5942 0.6965
vn 0.5000 0.0000 0.8660
vn 0.9997 -0.0225 0.0000
vn 0.4999 -0.0225 -0.8658
vn 0.4523 -0.4261 -0.7835
vn 0.9047 -0.4261 0.0000
vn -0.4999 -0.0225 -0.8658
vn -0.4524 -0.4260 -0.7835
vn -0.9997 -0.0225 0.0000
vn -0.9047 -0.4260 0.0000
vn -0.4999 -0.0225 0.8658
vn -0.4524 -0.4260 0.7835
vn 0.4999 -0.0225 0.8658
vn 0.4524 -0.4260 0.7835
vn 0.0000 1.0000 -0.0000
vn 0.4889 -0.1787 -0.8538
vn 0.9715 -0.2370 -0.0000
vn -0.4889 -0.1787 -0.8538
vn -0.9715 -0.2370 0.0000
vn -0.4889 -0.1787 0.8538
vn 0.4889 -0.1787 0.8538
vn 0.7924 0.6100 0.0000
vn 0.3962 0.6100 -0.6862
vn -0.3962 0.6100 -0.6862
vn -0.7924 0.6100 0.0000
vn -0.3962 0.6100 0.6862
vn 0.3962 0.6100 0.6862
vn 0.5009 -0.3347 -0.7982
vn 0.9413 -0.3376 -0.0000
vn -0.5009 -0.3347 -0.7982
vn -0.9413 -0.3376 0.0000
vn -0.5009 -0.3347 0.7982
vn 0.5009 -0.3347 0.7982
vn 0.4867 -0.3373 -0.8058
vn 0.9366 -0.3505 -0.0000
vn -0.4867 -0.3373 -0.8058
vn -0.9366 -0.3505 0.0000
vn -0.4867 -0.3373 0.8058
vn 0.4867 -0.3373 0.8058
vn 0.4549 0.4149 -0.7880
vn 0.9099 0.4149 0.0000
vn -0.4549 0.4149 -0.7880
vn -0.9099 0.4149 0.0000
vn -0.4549 0.4149 0.7880
vn 0.4549 0.4149 0.7880
vn 0.5000 -0.0000 -0.8660
vn 1.0000 0.0000 0.0001
vn -0.5000 -0.0000 -0.8660
vn -0.5000 -0.0000 0.8660
vn 0.5000 -0.0000 0.8660
# 84 vertex normals

vt 9.0000 10.3923 0.0000
vt 3.0000 10.3923 0.0000
vt 0.0000 5.1962 0.0000
vt 3.0000 0.0000 0.0000
vt 9.0000 0.0000 0.0000
vt 12.0000 5.1962 0.0000
vt 28.2743 0.0000 1.0000
vt 34.5575 0.0000 1.0000
vt 34.5575 0.1371 1.0000
vt 28.2743 0.1371 1.0000
vt -3.1416 0.0000 1.0000
vt 3.1416 0.0000 1.0000
vt 3.1416 0.1371 1.0000
vt -3.1416 0.1371 1.0000
vt 9.4248 0.0000 1.0000
vt 9.4248 0.1371 1.0000
vt 15.7080 0.0000 1.0000
vt 15.7080 0.1371 1.0000
vt 21.9911 0.0000 1.0000
vt 21.9911 0.1371 1.0000
vt 28.2743 3.0000 1.0000
vt 34.5575 3.0000 1.0000
vt 34.5575 5.8246 1.0000
vt 28.2743 5.8246 1.0000
vt -3.1416 3.0000 1.0000
vt 3.1416 3.0000 1.0000
vt 3.1416 5.8246 1.0000
vt -3.1416 5.8246 1.0000
vt 9.4248 3.0000 1.0000
vt 9.4248 5.8246 1.0000
vt 15.7080 3.0000 1.0000
vt 15.7080 5.8246 1.0000
vt 21.9911 3.0000 1.0000
vt 21.9911 5.8246 1.0000
vt 28.2743 6.0000 1.0000
vt 34.5575 6.0000 1.0000
vt 34.5575 6.2863 1.0000
vt 28.2743 6.2863 1.0000
vt -3.1416 6.0000 1.0000
vt 3.1416 6.0000 1.0000
vt 3.1416 6.2863 1.0000
vt -3.1416 6.2863 1.0000
vt 9.4248 6.0000 1.0000
vt 9.4248 6.2863 1.0000
vt 15.7080 6.0000 1.0000
vt 15.7080 6.2863 1.0000
vt 21.9911 6.0000 1.0000
vt 21.9911 6.2863 1.0000
vt 28.2743 9.0000 1.0000
vt 34.5575 9.0000 1.0000
vt 34.5575 9.1423 1.0000
vt 28.2743 9.1423 1.0000
vt -3.1416 9.0000 1.0000
vt 3.1416 9.0000 1.0000
vt 3.1416 9.1423 1.0000
vt -3.1416 9.1423 1.0000
vt 9.4248 9.0000 1.0000
vt 9.4248 9.1423 1.0000
vt 15.7080 9.0000 1.0000
vt 15.7080 9.1423 1.0000
vt 21.9911 9.0000 1.0000
vt 21.9911 9.1423 1.0000
vt 34.5575 2.9382 1.0000
vt 28.2743 2.9382 1.0000
vt 3.1416 2.9382 1.0000
vt -3.1416 2.9382 1.0000
vt 9.4248 2.9382 1.0000
vt 15.7080 2.9382 1.0000
vt 21.9911 2.9382 1.0000
vt 34.5575 0.2738 1.0000
vt 28.2743 0.2738 1.0000
vt 3.1416 0.2738 1.0000
vt -3.1416 0.2738 1.0000
vt 9.4248 0.2738 1.0000
vt 15.7080 0.2738 1.0000
vt 21.9911 0.2738 1.0000
vt 34.5575 2.8428 1.0000
vt 28.2743 2.8428 1.0000
vt 3.1416 2.8428 1.0000
vt -3.1416 2.8428 1.0000
vt 9.4248 2.8428 1.0000
vt 15.7080 2.8428 1.0000
vt 21.9911 2.8428 1.0000
vt 34.5575 8.8477 1.0000
vt 28.2743 8.8477 1.0000
vt 3.1416 8.8477 1.0000
vt -3.1416 8.8477 1.0000
vt 9.4248 8.8477 1.0000
vt 15.7080 8.8477 1.0000
vt 21.9911 8.8477 1.0000
vt 34.5575 9.3606 1.0000
vt 28.2743 9.3606 1.0000
vt 3.1416 9.3606 1.0000
vt -3.1416 9.3606 1.0000
vt 9.4248 9.3606 1.0000
vt 15.7080 9.3606 1.0000
vt 21.9911 9.3606 1.0000
vt 34.5575 11.7678 1.0000
vt 34.5575 12.0000 1.0000
vt 28.2743 12.0000 1.0000
vt 28.2743 11.7678 1.0000
vt 3.1416 11.7678 1.0000
vt 3.1416 12.0000 1.0000
vt -3.1416 12.0000 1.0000
vt -3.1416 11.7678 1.0000
vt 9.4248 11.7678 1.0000
vt 9.4248 12.0000 1.0000
vt 15.7080 11.7678 1.0000
vt 15.7080 12.0000 1.0000
vt 21.9911 11.7678 1.0000
vt 21.9911 12.0000 1.0000
vt 34.5575 8.7276 1.0000
vt 28.2743 8.7276 1.0000
vt 3.1416 8.7276 1.0000
vt -3.1416 8.7276 1.0000
vt 9.4248 8.7276 1.0000
vt 15.7080 8.7276 1.0000
vt 21.9911 8.7276 1.0000
# 118 texture coords

o Componente6
g Componente6
usemtl wire_088144225
s 1
f 1/1/1 2/2/2 3/3/3 4/4/4 5/5/5 6/6/6 
s 8
f 6/7/6 5/8/5 7/9/7 8/10/8 
f 5/11/5 4/12/4 9/13/9 7/14/7 
f 4/12/4 3/15/3 10/16/10 9/13/9 
f 3/15/3 2/17/2 11/18/11 10/16/10 
f 2/17/2 1/19/1 12/20/12 11/18/11 
f 1/19/1 6/7/6 8/10/8 12/20/12 
f 13/21/13 14/22/14 15/23/15 16/24/16 
f 14/25/14 17/26/17 18/27/18 15/28/15 
f 17/26/17 19/29/19 20/30/20 18/27/18 
f 19/29/19 21/31/21 22/32/22 20/30/20 
f 21/31/21 23/33/23 24/34/24 22/32/22 
f 23/33/23 13/21/13 16/24/16 24/34/24 
f 25/35/25 26/36/26 27/37/27 28/38/28 
f 26/39/26 29/40/29 30/41/30 27/42/27 
f 29/40/29 31/43/31 32/44/32 30/41/30 
f 31/43/31 33/45/33 34/46/34 32/44/32 
f 33/45/33 35/47/35 36/48/36 34/46/34 
f 35/47/35 25/35/25 28/38/28 36/48/36 
f 37/49/37 38/50/38 39/51/39 40/52/40 
f 38/53/38 41/54/41 42/55/42 39/56/39 
f 41/54/41 43/57/43 44/58/44 42/55/42 
f 43/57/43 45/59/45 46/60/46 44/58/44 
f 45/59/45 47/61/47 48/62/48 46/60/46 
f 47/61/47 37/49/37 40/52/40 48/62/48 
s 1
f 49/5/49 50/6/49 51/1/49 52/2/49 53/3/49 54/4/49 
s 8
f 15/23/15 26/36/26 25/35/25 16/24/16 
f 18/27/18 29/40/29 26/39/26 15/28/15 
f 20/30/20 31/43/31 29/40/29 18/27/18 
f 22/32/22 33/45/33 31/43/31 20/30/20 
f 24/34/24 35/47/35 33/45/33 22/32/22 
f 16/24/16 25/35/25 35/47/35 24/34/24 
f 55/63/50 14/22/14 13/21/13 56/64/51 
f 57/65/52 17/26/17 14/25/14 55/66/50 
f 58/67/53 19/29/19 17/26/17 57/65/52 
f 59/68/54 21/31/21 19/29/19 58/67/53 
f 60/69/55 23/33/23 21/31/21 59/68/54 
f 56/64/51 13/21/13 23/33/23 60/69/55 
s off
f 61/6/56 62/1/57 63/1/49 64/6/49 
f 62/1/57 65/2/58 66/2/49 63/1/49 
f 65/2/58 67/3/59 68/3/49 66/2/49 
f 67/3/59 69/4/60 70/4/49 68/3/49 
f 69/4/60 71/5/61 72/5/49 70/4/49 
f 71/5/61 61/6/56 64/6/49 72/5/49 
s 8
f 7/9/7 73/70/62 74/71/63 8/10/8 
f 9/13/9 75/72/64 73/73/62 7/14/7 
f 10/16/10 76/74/65 75/72/64 9/13/9 
f 11/18/11 77/75/66 76/74/65 10/16/10 
f 12/20/12 78/76/67 77/75/66 11/18/11 
f 8/10/8 74/71/63 78/76/67 12/20/12 
f 73/70/62 79/77/68 80/78/69 74/71/63 
f 75/72/64 81/79/70 79/80/68 73/73/62 
f 76/74/65 82/81/71 81/79/70 75/72/64 
f 77/75/66 83/82/72 82/81/71 76/74/65 
f 78/76/67 84/83/73 83/82/72 77/75/66 
f 74/71/63 80/78/69 84/83/73 78/76/67 
f 79/77/68 55/63/50 56/64/51 80/78/69 
f 81/79/70 57/65/52 55/66/50 79/80/68 
f 82/81/71 58/67/53 57/65/52 81/79/70 
f 83/82/72 59/68/54 58/67/53 82/81/71 
f 84/83/73 60/69/55 59/68/54 83/82/72 
f 80/78/69 56/64/51 60/69/55 84/83/73 
f 85/84/74 38/50/38 37/49/37 86/85/75 
f 87/86/76 41/54/41 38/53/38 85/87/74 
f 88/88/77 43/57/43 41/54/41 87/86/76 
f 89/89/78 45/59/45 43/57/43 88/88/77 
f 90/90/79 47/61/47 45/59/45 89/89/78 
f 86/85/75 37/49/37 47/61/47 90/90/79 
f 39/51/39 91/91/80 92/92/81 40/52/40 
f 42/55/42 93/93/82 91/94/80 39/56/39 
f 44/58/44 94/95/32 93/93/82 42/55/42 
f 46/60/46 95/96/83 94/95/32 44/58/44 
f 48/62/48 96/97/84 95/96/83 46/60/46 
f 40/52/40 92/92/81 96/97/84 48/62/48 
f 97/98/80 62/99/57 61/100/56 98/101/28 
f 99/102/82 65/103/58 62/104/57 97/105/80 
f 100/106/32 67/107/59 65/103/58 99/102/82 
f 101/108/83 69/109/60 67/107/59 100/106/32 
f 102/110/84 71/111/61 69/109/60 101/108/83 
f 98/101/28 61/100/56 71/111/61 102/110/84 
f 27/37/27 103/112/27 104/113/28 28/38/28 
f 30/41/30 105/114/82 103/115/27 27/42/27 
f 32/44/32 106/116/32 105/114/82 30/41/30 
f 34/46/34 107/117/34 106/116/32 32/44/32 
f 36/48/36 108/118/36 107/117/34 34/46/34 
f 28/38/28 104/113/28 108/118/36 36/48/36 
s off
f 63/1/49 51/1/49 50/6/49 64/6/49 
f 66/2/49 52/2/49 51/1/49 63/1/49 
f 68/3/49 53/3/49 52/2/49 66/2/49 
f 70/4/49 54/4/49 53/3/49 68/3/49 
f 72/5/49 49/5/49 54/4/49 70/4/49 
f 64/6/49 50/6/49 49/5/49 72/5/49 
s 8
f 103/112/27 85/84/74 86/85/75 104/113/28 
f 105/114/82 87/86/76 85/87/74 103/115/27 
f 106/116/32 88/88/77 87/86/76 105/114/82 
f 107/117/34 89/89/78 88/88/77 106/116/32 
f 108/118/36 90/90/79 89/89/78 107/117/34 
f 104/113/28 86/85/75 90/90/79 108/118/36 
f 91/91/80 97/98/80 98/101/28 92/92/81 
f 93/93/82 99/102/82 97/105/80 91/94/80 
f 94/95/32 100/106/32 99/102/82 93/93/82 
f 95/96/83 101/108/83 100/106/32 94/95/32 
f 96/97/84 102/110/84 101/108/83 95/96/83 
f 92/92/81 98/101/28 102/110/84 96/97/84 
# 104 polygons

