# 3ds Max Wavefront OBJ Exporter v0.97b - (c)2007 guruware
# File Created: 09.02.2018 22:27:19

mtllib 872827_Gambe.mtl

#
# object Gambe
#

v  0.0000 0.0363 -0.0000
v  -0.0031 0.0363 -0.0054
v  0.0031 0.0363 -0.0054
v  0.0063 0.0363 -0.0000
v  -0.0031 0.0363 0.0054
v  -0.0063 0.0363 0.0000
v  0.0031 0.0363 0.0054
v  0.0062 0.0363 -0.0108
v  0.0125 0.0363 -0.0000
v  -0.0063 0.0363 -0.0108
v  -0.0125 0.0363 0.0000
v  -0.0062 0.0363 0.0108
v  0.0062 0.0363 0.0108
v  0.0063 0.1843 -0.0108
v  0.0125 0.1843 -0.0000
v  -0.0063 0.1843 -0.0108
v  -0.0125 0.1843 0.0000
v  -0.0062 0.1843 0.0108
v  0.0062 0.1843 0.0108
v  0.0063 0.3323 -0.0108
v  0.0125 0.3323 -0.0000
v  -0.0063 0.3323 -0.0108
v  -0.0125 0.3323 0.0000
v  -0.0062 0.3323 0.0108
v  0.0062 0.3323 0.0108
v  0.0062 0.4803 -0.0108
v  0.0125 0.4803 -0.0000
v  -0.0063 0.4803 -0.0108
v  -0.0125 0.4803 0.0000
v  -0.0062 0.4803 0.0108
v  0.0062 0.4803 0.0108
v  0.0063 0.6283 -0.0108
v  0.0125 0.6283 -0.0000
v  -0.0063 0.6283 -0.0108
v  -0.0125 0.6283 0.0000
v  -0.0062 0.6283 0.0108
v  0.0062 0.6283 0.0108
v  0.0062 0.7763 -0.0108
v  0.0125 0.7763 -0.0000
v  -0.0063 0.7763 -0.0108
v  -0.0125 0.7763 0.0000
v  -0.0062 0.7763 0.0108
v  0.0062 0.7763 0.0108
v  0.0031 0.7763 -0.0054
v  0.0063 0.7763 -0.0000
v  -0.0031 0.7763 -0.0054
v  -0.0063 0.7763 0.0000
v  -0.0031 0.7763 0.0054
v  0.0031 0.7763 0.0054
v  0.0000 0.7763 -0.0000
# 50 vertices

vn 0.0000 -1.0000 -0.0000
vn 0.3962 -0.6100 -0.6862
vn 0.7924 -0.6100 0.0000
vn -0.3962 -0.6100 -0.6862
vn -0.7924 -0.6100 0.0000
vn -0.3962 -0.6100 0.6862
vn 0.3962 -0.6100 0.6862
vn 0.5000 -0.0000 -0.8660
vn 1.0000 -0.0000 0.0000
vn -0.5000 -0.0000 -0.8660
vn -1.0000 -0.0000 0.0000
vn -0.5000 -0.0000 0.8660
vn 0.5000 -0.0000 0.8660
vn 0.5000 0.0000 -0.8660
vn 1.0000 0.0000 0.0000
vn -0.5000 0.0000 -0.8660
vn -1.0000 0.0000 0.0000
vn -0.5000 0.0000 0.8660
vn 0.5000 0.0000 0.8660
vn 0.3962 0.6100 -0.6862
vn 0.7924 0.6100 0.0000
vn -0.3962 0.6100 -0.6862
vn -0.7924 0.6100 0.0000
vn -0.3962 0.6100 0.6862
vn 0.3962 0.6100 0.6862
vn 0.0000 1.0000 -0.0000
# 26 vertex normals

vt 0.0125 0.0108 0.0000
vt 0.0094 0.0054 0.0000
vt 0.0156 0.0054 0.0000
vt 0.0188 0.0108 0.0000
vt 0.0094 0.0162 0.0000
vt 0.0063 0.0108 0.0000
vt 0.0156 0.0162 0.0000
vt 0.0188 0.0000 0.0000
vt 0.0250 0.0108 0.0000
vt 0.0062 0.0000 0.0000
vt 0.0000 0.0108 0.0000
vt 0.0063 0.0217 0.0000
vt 0.0187 0.0217 0.0000
vt 0.0589 0.0000 1.0000
vt 0.0720 0.0000 1.0000
vt 0.0720 0.1480 1.0000
vt 0.0589 0.1480 1.0000
vt -0.0065 0.0000 1.0000
vt 0.0065 0.0000 1.0000
vt 0.0065 0.1480 1.0000
vt -0.0065 0.1480 1.0000
vt 0.0196 0.0000 1.0000
vt 0.0196 0.1480 1.0000
vt 0.0327 0.0000 1.0000
vt 0.0327 0.1480 1.0000
vt 0.0458 0.0000 1.0000
vt 0.0458 0.1480 1.0000
vt 0.0720 0.2960 1.0000
vt 0.0589 0.2960 1.0000
vt 0.0065 0.2960 1.0000
vt -0.0065 0.2960 1.0000
vt 0.0196 0.2960 1.0000
vt 0.0327 0.2960 1.0000
vt 0.0458 0.2960 1.0000
vt 0.0720 0.4440 1.0000
vt 0.0589 0.4440 1.0000
vt 0.0065 0.4440 1.0000
vt -0.0065 0.4440 1.0000
vt 0.0196 0.4440 1.0000
vt 0.0327 0.4440 1.0000
vt 0.0458 0.4440 1.0000
vt 0.0720 0.5920 1.0000
vt 0.0589 0.5920 1.0000
vt 0.0065 0.5920 1.0000
vt -0.0065 0.5920 1.0000
vt 0.0196 0.5920 1.0000
vt 0.0327 0.5920 1.0000
vt 0.0458 0.5920 1.0000
vt 0.0720 0.7400 1.0000
vt 0.0589 0.7400 1.0000
vt 0.0065 0.7400 1.0000
vt -0.0065 0.7400 1.0000
vt 0.0196 0.7400 1.0000
vt 0.0327 0.7400 1.0000
vt 0.0458 0.7400 1.0000
vt 0.0188 0.0217 0.0000
vt 0.0062 0.0217 0.0000
vt 0.0063 0.0000 0.0000
vt 0.0187 0.0000 0.0000
# 59 texture coords

o Gambe
g Gambe
usemtl wire_088144225
s 1
f 1/1/1 2/2/1 3/3/1 4/4/1 
f 1/1/1 5/5/1 6/6/1 2/2/1 
f 1/1/1 4/4/1 7/7/1 5/5/1 
f 4/4/1 3/3/1 8/8/2 9/9/3 
f 3/3/1 2/2/1 10/10/4 8/8/2 
f 2/2/1 6/6/1 11/11/5 10/10/4 
f 6/6/1 5/5/1 12/12/6 11/11/5 
f 5/5/1 7/7/1 13/13/7 12/12/6 
f 7/7/1 4/4/1 9/9/3 13/13/7 
s 8
f 9/14/3 8/15/2 14/16/8 15/17/9 
f 8/18/2 10/19/4 16/20/10 14/21/8 
f 10/19/4 11/22/5 17/23/11 16/20/10 
f 11/22/5 12/24/6 18/25/12 17/23/11 
f 12/24/6 13/26/7 19/27/13 18/25/12 
f 13/26/7 9/14/3 15/17/9 19/27/13 
f 15/17/9 14/16/8 20/28/14 21/29/15 
f 14/21/8 16/20/10 22/30/16 20/31/14 
f 16/20/10 17/23/11 23/32/17 22/30/16 
f 17/23/11 18/25/12 24/33/18 23/32/17 
f 18/25/12 19/27/13 25/34/19 24/33/18 
f 19/27/13 15/17/9 21/29/15 25/34/19 
f 21/29/15 20/28/14 26/35/8 27/36/9 
f 20/31/14 22/30/16 28/37/10 26/38/8 
f 22/30/16 23/32/17 29/39/11 28/37/10 
f 23/32/17 24/33/18 30/40/12 29/39/11 
f 24/33/18 25/34/19 31/41/13 30/40/12 
f 25/34/19 21/29/15 27/36/9 31/41/13 
f 27/36/9 26/35/8 32/42/8 33/43/9 
f 26/38/8 28/37/10 34/44/10 32/45/8 
f 28/37/10 29/39/11 35/46/11 34/44/10 
f 29/39/11 30/40/12 36/47/12 35/46/11 
f 30/40/12 31/41/13 37/48/13 36/47/12 
f 31/41/13 27/36/9 33/43/9 37/48/13 
f 33/43/9 32/42/8 38/49/20 39/50/21 
f 32/45/8 34/44/10 40/51/22 38/52/20 
f 34/44/10 35/46/11 41/53/23 40/51/22 
f 35/46/11 36/47/12 42/54/24 41/53/23 
f 36/47/12 37/48/13 43/55/25 42/54/24 
f 37/48/13 33/43/9 39/50/21 43/55/25 
s 1
f 39/9/21 38/56/20 44/7/26 45/4/26 
f 38/56/20 40/57/22 46/5/26 44/7/26 
f 40/57/22 41/11/23 47/6/26 46/5/26 
f 41/11/23 42/58/24 48/2/26 47/6/26 
f 42/58/24 43/59/25 49/3/26 48/2/26 
f 43/59/25 39/9/21 45/4/26 49/3/26 
f 50/1/26 45/4/26 44/7/26 46/5/26 
f 50/1/26 46/5/26 47/6/26 48/2/26 
f 50/1/26 48/2/26 49/3/26 45/4/26 
# 48 polygons

#
# object Cylinder001
#

v  0.0000 0.0000 -0.0000
v  -0.0033 0.0000 -0.0056
v  0.0032 0.0000 -0.0056
v  0.0065 0.0000 -0.0000
v  -0.0032 0.0000 0.0056
v  -0.0065 0.0000 0.0000
v  0.0032 0.0000 0.0056
v  0.0065 0.0000 -0.0113
v  0.0130 0.0000 -0.0000
v  -0.0065 0.0000 -0.0113
v  -0.0130 0.0000 0.0000
v  -0.0065 0.0000 0.0113
v  0.0065 0.0000 0.0113
v  0.0065 0.0075 -0.0113
v  0.0130 0.0075 -0.0000
v  -0.0065 0.0075 -0.0113
v  -0.0130 0.0075 0.0000
v  -0.0065 0.0075 0.0113
v  0.0065 0.0075 0.0113
v  0.0065 0.0150 -0.0113
v  0.0130 0.0150 -0.0000
v  -0.0065 0.0150 -0.0113
v  -0.0130 0.0150 0.0000
v  -0.0065 0.0150 0.0113
v  0.0065 0.0150 0.0113
v  0.0032 0.0150 -0.0056
v  0.0065 0.0150 -0.0000
v  -0.0033 0.0150 -0.0056
v  -0.0065 0.0150 0.0000
v  -0.0032 0.0150 0.0056
v  0.0032 0.0150 0.0056
v  0.0000 0.0150 -0.0000
# 32 vertices

vn 0.0000 -1.0000 -0.0000
vn 0.3962 -0.6100 -0.6862
vn 0.7924 -0.6100 0.0000
vn -0.3962 -0.6100 -0.6862
vn -0.7924 -0.6100 0.0000
vn -0.3962 -0.6100 0.6862
vn 0.3962 -0.6100 0.6862
vn 0.5000 0.0000 -0.8660
vn 1.0000 0.0000 0.0000
vn -0.5000 0.0000 -0.8660
vn -1.0000 0.0000 0.0000
vn -0.5000 0.0000 0.8660
vn 0.5000 0.0000 0.8660
vn 0.3962 0.6100 -0.6862
vn 0.7924 0.6100 0.0000
vn -0.3962 0.6100 -0.6862
vn -0.7924 0.6100 0.0000
vn -0.3962 0.6100 0.6862
vn 0.3962 0.6100 0.6862
vn 0.0000 1.0000 -0.0000
# 20 vertex normals

vt 0.0130 0.0113 0.0000
vt 0.0097 0.0056 0.0000
vt 0.0162 0.0056 0.0000
vt 0.0195 0.0113 0.0000
vt 0.0098 0.0169 0.0000
vt 0.0065 0.0113 0.0000
vt 0.0162 0.0169 0.0000
vt 0.0195 0.0000 0.0000
vt 0.0260 0.0113 0.0000
vt 0.0065 0.0000 0.0000
vt 0.0000 0.0113 0.0000
vt 0.0065 0.0225 0.0000
vt 0.0195 0.0225 0.0000
vt 0.0613 0.0000 1.0000
vt 0.0749 0.0000 1.0000
vt 0.0749 0.0075 1.0000
vt 0.0613 0.0075 1.0000
vt -0.0068 0.0000 1.0000
vt 0.0068 0.0000 1.0000
vt 0.0068 0.0075 1.0000
vt -0.0068 0.0075 1.0000
vt 0.0204 0.0000 1.0000
vt 0.0204 0.0075 1.0000
vt 0.0340 0.0000 1.0000
vt 0.0340 0.0075 1.0000
vt 0.0476 0.0000 1.0000
vt 0.0476 0.0075 1.0000
vt 0.0749 0.0150 1.0000
vt 0.0613 0.0150 1.0000
vt 0.0068 0.0150 1.0000
vt -0.0068 0.0150 1.0000
vt 0.0204 0.0150 1.0000
vt 0.0340 0.0150 1.0000
vt 0.0476 0.0150 1.0000
vt 0.0097 0.0169 0.0000
vt 0.0098 0.0056 0.0000
# 36 texture coords

o Cylinder001
g Cylinder001
usemtl wire_088144225
s 1
f 51/60/27 52/61/27 53/62/27 54/63/27 
f 51/60/27 55/64/27 56/65/27 52/61/27 
f 51/60/27 54/63/27 57/66/27 55/64/27 
f 54/63/27 53/62/27 58/67/28 59/68/29 
f 53/62/27 52/61/27 60/69/30 58/67/28 
f 52/61/27 56/65/27 61/70/31 60/69/30 
f 56/65/27 55/64/27 62/71/32 61/70/31 
f 55/64/27 57/66/27 63/72/33 62/71/32 
f 57/66/27 54/63/27 59/68/29 63/72/33 
s 8
f 59/73/29 58/74/28 64/75/34 65/76/35 
f 58/77/28 60/78/30 66/79/36 64/80/34 
f 60/78/30 61/81/31 67/82/37 66/79/36 
f 61/81/31 62/83/32 68/84/38 67/82/37 
f 62/83/32 63/85/33 69/86/39 68/84/38 
f 63/85/33 59/73/29 65/76/35 69/86/39 
f 65/76/35 64/75/34 70/87/40 71/88/41 
f 64/80/34 66/79/36 72/89/42 70/90/40 
f 66/79/36 67/82/37 73/91/43 72/89/42 
f 67/82/37 68/84/38 74/92/44 73/91/43 
f 68/84/38 69/86/39 75/93/45 74/92/44 
f 69/86/39 65/76/35 71/88/41 75/93/45 
s 1
f 71/68/41 70/72/40 76/66/46 77/63/46 
f 70/72/40 72/71/42 78/94/46 76/66/46 
f 72/71/42 73/70/43 79/65/46 78/94/46 
f 73/70/43 74/69/44 80/95/46 79/65/46 
f 74/69/44 75/67/45 81/62/46 80/95/46 
f 75/67/45 71/68/41 77/63/46 81/62/46 
f 82/60/46 77/63/46 76/66/46 78/94/46 
f 82/60/46 78/94/46 79/65/46 80/95/46 
f 82/60/46 80/95/46 81/62/46 77/63/46 
# 30 polygons

